<svg xmlns="http://www.w3.org/2000/svg" viewBox="0 0 720 360" width="720" height="360" font-family="Georgia, 'Times New Roman', serif">
  <rect width="720" height="360" fill="white"/>

  <defs>
    <marker id="arrFac" viewBox="0 0 10 10" refX="9" refY="5" markerWidth="6" markerHeight="6" orient="auto">
      <path d="M 0 0 L 10 5 L 0 10 z" fill="#444"/>
    </marker>
  </defs>

  <g font-size="13" font-weight="bold" fill="#222" text-anchor="middle">
    <text x="80"  y="20">(a)</text>
    <text x="220" y="20">(b)</text>
    <text x="360" y="20">(c)</text>
    <text x="500" y="20">(d)</text>
    <text x="640" y="20">(e)</text>
  </g>

  <g>
    <rect x="52" y="44" width="56" height="22" fill="#e8eef5" stroke="#446" stroke-width="1.2" rx="3"/>
    <text x="80" y="60" font-size="12" text-anchor="middle">105</text>
    <rect x="52" y="104" width="56" height="22" fill="#e8eef5" stroke="#446" stroke-width="1.2" rx="3"/>
    <text x="80" y="120" font-size="12" text-anchor="middle">35</text>
    <rect x="52" y="164" width="56" height="22" fill="#dff5df" stroke="#363" stroke-width="1.4" rx="3"/>
    <text x="80" y="180" font-size="12" text-anchor="middle" font-weight="bold">7</text>
  </g>
  <g stroke="#444" stroke-width="1.2" fill="none" marker-end="url(#arrFac)">
    <line x1="80" y1="68" x2="80" y2="102"/>
    <line x1="80" y1="128" x2="80" y2="162"/>
  </g>
  <g font-size="11" font-style="italic" fill="#666">
    <text x="115" y="89">÷ 3</text>
    <text x="115" y="149">÷ 5</text>
  </g>
  <text x="80" y="208" font-size="10" font-style="italic" fill="#363" text-anchor="middle">prime</text>

  <g>
    <rect x="192" y="44" width="56" height="22" fill="#e8eef5" stroke="#446" stroke-width="1.2" rx="3"/>
    <text x="220" y="60" font-size="12" text-anchor="middle">414</text>
    <rect x="192" y="104" width="56" height="22" fill="#e8eef5" stroke="#446" stroke-width="1.2" rx="3"/>
    <text x="220" y="120" font-size="12" text-anchor="middle">207</text>
    <rect x="192" y="164" width="56" height="22" fill="#e8eef5" stroke="#446" stroke-width="1.2" rx="3"/>
    <text x="220" y="180" font-size="12" text-anchor="middle">69</text>
    <rect x="192" y="224" width="56" height="22" fill="#dff5df" stroke="#363" stroke-width="1.4" rx="3"/>
    <text x="220" y="240" font-size="12" text-anchor="middle" font-weight="bold">23</text>
  </g>
  <g stroke="#444" stroke-width="1.2" fill="none" marker-end="url(#arrFac)">
    <line x1="220" y1="68" x2="220" y2="102"/>
    <line x1="220" y1="128" x2="220" y2="162"/>
    <line x1="220" y1="188" x2="220" y2="222"/>
  </g>
  <g font-size="11" font-style="italic" fill="#666">
    <text x="255" y="89">÷ 2</text>
    <text x="255" y="149">÷ 3</text>
    <text x="255" y="209">÷ 3</text>
  </g>
  <text x="220" y="268" font-size="10" font-style="italic" fill="#363" text-anchor="middle">prime</text>

  <g>
    <rect x="332" y="44" width="56" height="22" fill="#e8eef5" stroke="#446" stroke-width="1.2" rx="3"/>
    <text x="360" y="60" font-size="12" text-anchor="middle">168</text>
    <rect x="332" y="104" width="56" height="22" fill="#e8eef5" stroke="#446" stroke-width="1.2" rx="3"/>
    <text x="360" y="120" font-size="12" text-anchor="middle">84</text>
    <rect x="332" y="164" width="56" height="22" fill="#e8eef5" stroke="#446" stroke-width="1.2" rx="3"/>
    <text x="360" y="180" font-size="12" text-anchor="middle">42</text>
    <rect x="332" y="224" width="56" height="22" fill="#e8eef5" stroke="#446" stroke-width="1.2" rx="3"/>
    <text x="360" y="240" font-size="12" text-anchor="middle">21</text>
    <rect x="332" y="284" width="56" height="22" fill="#dff5df" stroke="#363" stroke-width="1.4" rx="3"/>
    <text x="360" y="300" font-size="12" text-anchor="middle" font-weight="bold">7</text>
  </g>
  <g stroke="#444" stroke-width="1.2" fill="none" marker-end="url(#arrFac)">
    <line x1="360" y1="68" x2="360" y2="102"/>
    <line x1="360" y1="128" x2="360" y2="162"/>
    <line x1="360" y1="188" x2="360" y2="222"/>
    <line x1="360" y1="248" x2="360" y2="282"/>
  </g>
  <g font-size="11" font-style="italic" fill="#666">
    <text x="395" y="89">÷ 2</text>
    <text x="395" y="149">÷ 2</text>
    <text x="395" y="209">÷ 2</text>
    <text x="395" y="269">÷ 3</text>
  </g>
  <text x="360" y="328" font-size="10" font-style="italic" fill="#363" text-anchor="middle">prime</text>

  <g>
    <rect x="472" y="44" width="56" height="22" fill="#e8eef5" stroke="#446" stroke-width="1.2" rx="3"/>
    <text x="500" y="60" font-size="12" text-anchor="middle">1612</text>
    <rect x="472" y="104" width="56" height="22" fill="#e8eef5" stroke="#446" stroke-width="1.2" rx="3"/>
    <text x="500" y="120" font-size="12" text-anchor="middle">806</text>
    <rect x="472" y="164" width="56" height="22" fill="#e8eef5" stroke="#446" stroke-width="1.2" rx="3"/>
    <text x="500" y="180" font-size="12" text-anchor="middle">403</text>
    <rect x="472" y="224" width="56" height="22" fill="#dff5df" stroke="#363" stroke-width="1.4" rx="3"/>
    <text x="500" y="240" font-size="12" text-anchor="middle" font-weight="bold">31</text>
  </g>
  <g stroke="#444" stroke-width="1.2" fill="none" marker-end="url(#arrFac)">
    <line x1="500" y1="68" x2="500" y2="102"/>
    <line x1="500" y1="128" x2="500" y2="162"/>
    <line x1="500" y1="188" x2="500" y2="222"/>
  </g>
  <g font-size="11" font-style="italic" fill="#666">
    <text x="535" y="89">÷ 2</text>
    <text x="535" y="149">÷ 2</text>
    <text x="535" y="209">÷ 13</text>
  </g>
  <text x="500" y="268" font-size="10" font-style="italic" fill="#363" text-anchor="middle">prime</text>

  <g>
    <rect x="612" y="44" width="56" height="22" fill="#e8eef5" stroke="#446" stroke-width="1.2" rx="3"/>
    <text x="640" y="60" font-size="12" text-anchor="middle">9177</text>
    <rect x="612" y="104" width="56" height="22" fill="#e8eef5" stroke="#446" stroke-width="1.2" rx="3"/>
    <text x="640" y="120" font-size="12" text-anchor="middle">3059</text>
    <rect x="612" y="164" width="56" height="22" fill="#e8eef5" stroke="#446" stroke-width="1.2" rx="3"/>
    <text x="640" y="180" font-size="12" text-anchor="middle">437</text>
    <rect x="612" y="224" width="56" height="22" fill="#dff5df" stroke="#363" stroke-width="1.4" rx="3"/>
    <text x="640" y="240" font-size="12" text-anchor="middle" font-weight="bold">23</text>
  </g>
  <g stroke="#444" stroke-width="1.2" fill="none" marker-end="url(#arrFac)">
    <line x1="640" y1="68" x2="640" y2="102"/>
    <line x1="640" y1="128" x2="640" y2="162"/>
    <line x1="640" y1="188" x2="640" y2="222"/>
  </g>
  <g font-size="11" font-style="italic" fill="#666">
    <text x="675" y="89">÷ 3</text>
    <text x="675" y="149">÷ 7</text>
    <text x="675" y="209">÷ 19</text>
  </g>
  <text x="640" y="268" font-size="10" font-style="italic" fill="#363" text-anchor="middle">prime</text>
</svg>
